<?xml version="1.0" encoding="UTF-8"?>
<svg width="41px" height="59px" viewBox="0 0 41 59" version="1.1" xmlns="http://www.w3.org/2000/svg" xmlns:xlink="http://www.w3.org/1999/xlink">
    <!-- Generator: Sketch 49.2 (51160) - http://www.bohemiancoding.com/sketch -->
    <title>客服电话</title>
    <desc>Created with Sketch.</desc>
    <defs>
        <rect id="path-1" x="0" y="0" width="68" height="68"></rect>
        <path d="M14,34 C21.1797017,34 27.9697208,26.6257337 27.9697208,17.5291153 C27.9697208,8.43249679 24.5428258,0.0703604063 14,0.0703604063 C3.4571742,0.0703604063 0.0434935997,8.43249679 0.0434935997,17.5291153 C0.0434935997,26.6257337 6.82029825,34 14,34 Z" id="path-2"></path>
    </defs>
    <g id="Page-1" stroke="none" stroke-width="1" fill="none" fill-rule="evenodd">
        <g id="联系客服" transform="translate(-54.000000, -132.000000)">
            <g id="客服电话" transform="translate(41.000000, 128.000000)">
                <g id="Rectangle-34" opacity="0">
                    <use fill="#D8D8D8" fill-rule="evenodd" xlink:href="#path-1"></use>
                    <rect stroke="#979797" stroke-width="1" x="0.5" y="0.5" width="67" height="67"></rect>
                </g>
                <rect id="Rectangle" fill="#FFD552" x="20" y="26" width="28" height="26"></rect>
                <path d="M18,29.5 L18,21 C18,12.163444 25.163444,5 34,5 C42.836556,5 50,12.163444 50,21 L50,29.5" id="Rectangle-Copy" stroke="#4A4A4A" stroke-width="2" stroke-linecap="round" stroke-linejoin="round"></path>
                <path d="M33.4972044,37 C21.261449,37 14.9431178,42.8923736 13.7996525,50.0032373 C12.6426634,57.1076264 9.49946831,63 33.4972044,63 C57.5084641,63 54.355838,57.1076264 53.1988489,50.0032373 C52.0554726,42.8923736 45.7374084,37 33.4972044,37 Z" id="Shape" fill="#6298E6" fill-rule="nonzero"></path>
                <g id="Path-80" transform="translate(20.000000, 7.000000)">
                    <mask id="mask-3" fill="white">
                        <use xlink:href="#path-2"></use>
                    </mask>
                    <use id="Mask" fill="#FFF3EB" xlink:href="#path-2"></use>
                    <path d="M-0.896221651,17.1142924 C2.38711498,17.2227436 5.62807593,16.9110202 8.82666119,16.1791222 C12.0252464,15.4472242 16.1358998,13.1597231 21.1586214,9.31661885 C22.0507143,12.4827322 22.8135099,14.5534584 23.4470081,15.5287977 C24.0805063,16.5041369 25.8614861,17.1526962 28.7899474,17.4744757 L29.206072,10.5743159 L22.5554397,-0.738825206 L5.55378404,0.252812614 L-2.31741611,10.1977894 L-0.896221651,17.1142924 Z" fill="#FFD552" mask="url(#mask-3)"></path>
                </g>
                <path d="M48,26.8576035 L48,31 C48,33.7614237 45.7614237,36 43,36 L36.9682641,36" id="Rectangle-Copy-2" stroke="#4A4A4A"></path>
                <rect id="Rectangle-22" fill="#4A4A4A" x="45" y="23" width="5" height="9" rx="1"></rect>
                <circle id="Oval-15" fill="#4A4A4A" cx="36" cy="36" r="2"></circle>
                <rect id="Rectangle-22-Copy" fill="#4A4A4A" x="18" y="23" width="5" height="9" rx="1"></rect>
            </g>
        </g>
    </g>
</svg>