<?xml version="1.0" encoding="UTF-8"?>
<svg width="51px" height="42px" viewBox="0 0 51 42" version="1.1" xmlns="http://www.w3.org/2000/svg" xmlns:xlink="http://www.w3.org/1999/xlink">
    <!-- Generator: Sketch 49.2 (51160) - http://www.bohemiancoding.com/sketch -->
    <title>微信</title>
    <desc>Created with Sketch.</desc>
    <defs>
        <rect id="path-1" x="0" y="0" width="68" height="68"></rect>
    </defs>
    <g id="Page-1" stroke="none" stroke-width="1" fill="none" fill-rule="evenodd">
        <g id="联系客服" transform="translate(-50.000000, -243.000000)">
            <g id="微信" transform="translate(41.000000, 230.000000)">
                <g id="Rectangle-34-Copy" opacity="0">
                    <use fill="#D8D8D8" fill-rule="evenodd" xlink:href="#path-1"></use>
                    <rect stroke="#979797" stroke-width="1" x="0.5" y="0.5" width="67" height="67"></rect>
                </g>
                <path d="M44.6523993,28.5176065 C45.2388993,28.5176065 45.5547225,27.2541402 45.2641875,25.8142693 C43.7023125,18.4614499 35.928,13 27.0508125,13 C17.128125,13 9,19.8308401 9,28.5176065 C9,33.5279632 11.703,37.6425777 16.222875,40.8388953 L14.41875,46.3228999 L20.73,43.1265823 C22.98675,43.5744534 24.79725,44.038435 27.0508125,44.038435 C27.6181875,44.038435 28.1791875,44.0126582 28.7338125,43.970771 C30.7072406,43.7982639 32.7432205,44.1525017 32.7376561,42.8562798 C32.7408436,34.8880404 36.0812118,28.5176065 44.6523993,28.5176065 Z" id="Path" fill="#87DC49"></path>
                <path d="M33.817875,20.7620253 C35.182125,20.7620253 36.0778125,21.6642117 36.0778125,23.040046 C36.0778125,24.406214 35.182125,25.3212888 33.817875,25.3212888 C32.4695625,25.3212888 31.1116875,24.406214 31.1116875,23.040046 C31.1116875,21.6642118 32.466375,20.7620253 33.817875,20.7620253 Z" id="Path" fill="#116F20"></path>
                <path d="M21.1858125,25.3148446 C19.831125,25.3148446 18.466875,24.3997698 18.466875,23.0336018 C18.466875,21.6609896 19.831125,20.7555811 21.1858125,20.7555811 C22.5405,20.7555812 23.439375,21.6577676 23.439375,23.0336018 C23.439375,24.3997698 22.5405,25.3148446 21.1858125,25.3148446 Z" id="Path" fill="#116F20"></path>
                <path d="M60,39.9270426 C60,32.632221 52.777125,26.6842348 44.6649375,26.6842348 C36.074625,26.6842348 29.3139375,32.635443 29.3139375,39.9270426 C29.3139375,47.2411968 36.0778125,53.1666283 44.6649375,53.1666283 C46.4626875,53.1666283 48.276375,52.712313 50.0805,52.2547756 L55.0306875,55 L53.6728125,50.4375144 C57.297,47.6858458 60,44.0416571 60,39.9270426 Z" id="Path" fill="#EDF0F0"></path>
                <path d="M39.6860625,37.6393556 C38.790375,37.6393556 37.8819375,36.7371692 37.8819375,35.8188723 C37.8819375,34.9102416 38.790375,33.9951668 39.6860625,33.9951669 C41.0566875,33.9951669 41.946,34.9102417 41.946,35.8188723 C41.946,36.7403912 41.0566875,37.6425777 39.6860625,37.6425777 L39.6860625,37.6393556 Z" id="Path" fill="#7B7F7F"></path>
                <path d="M49.615125,37.6393556 C48.7258125,37.6393556 47.8205625,36.7371692 47.8205625,35.8188723 C47.8205625,34.9102416 48.722625,33.9951668 49.615125,33.9951669 C50.973,33.9951669 51.8750625,34.9102417 51.8750625,35.8188723 C51.8750625,36.7403912 50.973,37.6425777 49.615125,37.6425777 L49.615125,37.6393556 Z" id="Path" fill="#7B7F7F"></path>
            </g>
        </g>
    </g>
</svg>